<svg width="268" height="65" viewBox="0 0 268 65" fill="none" xmlns="http://www.w3.org/2000/svg">
<path fill-rule="evenodd" clip-rule="evenodd" d="M37.4905 5.6422C37.7636 3.20276 36.0342 0.99998 33.5947 0.726908C31.1553 0.435631 28.9525 2.18329 28.6794 4.62273C28.3517 7.40806 28.8069 10.7395 29.3894 14.162C31.0096 14.6536 32.5753 15.3636 34.0316 16.201C35.5972 12.5054 37.1265 8.84624 37.4905 5.6422ZM54.6212 16.3466C53.6564 14.0892 51.0349 13.0697 48.7775 14.0346C45.8101 15.3271 42.7335 17.8576 39.6387 20.4609C40.8038 21.6078 41.8961 22.9003 42.8245 24.3021C46.3381 23.8652 49.706 23.3372 52.3092 22.2085C54.5666 21.2073 55.6043 18.5858 54.6212 16.3466ZM47.1391 4.44068C45.173 2.9843 42.3876 3.38481 40.9312 5.35092C38.7103 8.33651 37.2175 12.7967 35.5972 17.1476C36.1434 17.5117 36.6531 17.8758 37.1447 18.2581C37.5087 18.5494 37.8911 18.8589 38.2734 19.1683C41.9871 16.3648 45.8465 13.6341 48.0675 10.6485C49.5239 8.6824 49.1052 5.89707 47.1391 4.44068Z" fill="white"/>
<path d="M38.6921 40.0856C37.3268 41.5602 35.8704 42.9256 34.323 44.2545C32.1566 46.1296 29.9538 47.9501 27.7146 49.6978C25.3116 48.2232 23.5822 47.4768 23.2909 47.8591C23.036 48.205 24.0373 49.4793 25.8395 51.1359C19.7956 55.6325 13.4057 59.6012 6.54248 62.8598C5.46839 63.3696 4.3397 63.7337 3.22921 64.1342C2.93793 64.2434 2.62845 64.2434 2.50101 64.2616C0.753356 64.4618 0.225417 63.9885 0.298236 62.3865C0.516694 57.3984 2.0641 52.7198 3.66612 48.0593C4.10304 46.785 4.55816 45.5107 5.03148 44.2363C7.45272 45.7109 9.18217 46.4755 9.47345 46.0932C9.78293 45.6745 8.32654 43.9997 5.8871 41.9061C7.63476 37.3913 9.58267 32.9494 11.8765 28.6895C16.4641 32.0938 20.542 34.3329 20.9971 33.714C21.4522 33.095 18.0843 29.7999 13.4421 26.3592L13.2418 26.2136C14.0428 24.8482 14.8803 23.4829 15.7723 22.1539C16.8828 20.4791 18.2481 18.9499 19.5953 17.4571C21.3976 15.4728 23.7278 14.7992 26.3311 15.3818C34.6689 17.2386 40.458 22.0265 43.1887 30.2369C43.7348 31.9117 43.2433 33.5501 42.3877 35.0611C41.8051 36.0806 41.168 37.0455 40.458 37.9557C36.0524 34.7334 32.2294 32.6581 31.7925 33.2407C31.3738 33.8232 34.414 36.827 38.6921 40.0856Z" fill="white"/>
<path d="M92.3962 10.4026C86.6253 10.4026 82.8751 12.7146 80.5995 17.1019H80.4721V14.3712C80.4721 12.4051 78.8701 10.8213 76.9039 10.8213C74.9378 10.8213 73.354 12.4051 73.354 14.3712V44.573C73.354 46.5391 74.9378 48.1411 76.9039 48.1411H77.2498C79.2159 48.1411 80.818 46.5391 80.818 44.573V26.5866C80.818 20.7065 84.1858 16.7925 89.8111 16.7925C95.2726 16.7925 97.894 19.9601 97.894 25.6218V44.573C97.894 46.5391 99.4779 48.1411 101.444 48.1411H101.79C103.756 48.1411 105.34 46.5391 105.34 44.573V24.22C105.34 15.6274 100.643 10.4026 92.3962 10.4026Z" fill="white"/>
<path d="M128.369 10.3297C117.937 10.3297 111.129 17.9393 111.129 29.6086C111.129 41.296 117.865 48.578 128.678 48.578C135.378 48.578 140.912 45.6106 143.406 40.9866C144.334 39.2935 143.06 37.2 141.13 37.2H139.237C138.29 37.2 137.471 37.7461 136.98 38.5653C135.542 41.0412 132.52 42.534 128.824 42.534C122.707 42.534 118.647 38.2741 118.647 31.8114V31.3744H142.496C143.916 31.3744 145.081 30.2093 145.081 28.7894V28.753C145.081 17.4478 138.618 10.3297 128.369 10.3297ZM118.684 26.0768C119.103 20.3423 122.98 16.4101 128.351 16.4101C133.776 16.4101 137.453 20.2695 137.617 26.0768H118.684Z" fill="white"/>
<path d="M179.797 35.5979H177.813C176.739 35.5979 175.811 36.2715 175.41 37.2728C174.118 40.5679 171.168 42.3337 166.981 42.3337C160.992 42.3337 156.95 37.5094 156.95 29.4811C156.95 21.6349 160.937 16.6286 166.945 16.6286C171.278 16.6286 174.172 18.7767 175.355 21.8351C175.756 22.8546 176.684 23.5646 177.795 23.5646H179.779C181.509 23.5646 182.801 21.8715 182.237 20.2331C180.325 14.6078 174.864 10.3297 166.872 10.3297C156.331 10.3297 149.377 17.8665 149.377 29.4811C149.377 41.296 156.35 48.578 166.945 48.578C174.536 48.578 180.18 44.8642 182.255 38.984C182.838 37.3274 181.563 35.5979 179.797 35.5979Z" fill="white"/>
<path d="M202.153 42.2791C202.025 42.2609 201.88 42.2427 201.752 42.2427C199.295 41.9514 198.148 40.4222 198.148 37.5459V16.7014H202.353C203.991 16.7014 205.302 15.3724 205.302 13.7522C205.302 12.132 203.991 10.8212 202.353 10.8212H198.148V6.14261C198.148 5.12314 197.729 4.1947 197.055 3.52112C196.382 2.84754 195.472 2.42883 194.434 2.42883C192.395 2.42883 190.738 4.10367 190.738 6.14261V10.8212H188.517C186.897 10.8212 185.568 12.132 185.568 13.7522C185.568 15.3724 186.897 16.7014 188.517 16.7014H190.738V38.3105C190.738 45.5196 193.615 48.3777 201.079 48.3777C201.097 48.3777 201.115 48.3777 201.115 48.3777C201.971 48.3777 202.754 48.1228 203.409 47.6677C203.427 47.6677 203.445 47.6495 203.445 47.6495C204.21 47.1034 204.72 46.2113 204.72 45.2101C204.72 43.7173 203.609 42.4611 202.153 42.2791Z" fill="white"/>
<path d="M226.365 10.3297C220.54 10.3297 215.734 12.6963 213.276 16.3555C212.875 16.9745 212.675 17.648 212.675 18.3034C212.675 20.1239 214.132 21.8169 216.189 21.8169C217.39 21.8169 218.537 21.1798 219.101 20.1239C220.303 17.8665 222.87 16.4829 226.165 16.4829C231.153 16.4829 233.993 18.8313 233.993 23.0913V23.5464C233.993 24.9117 232.937 26.0404 231.572 26.1133L223.926 26.5502C214.714 27.1327 209.671 30.9193 209.671 37.4548C209.671 44.1178 214.823 48.5051 222.287 48.5051C227.366 48.5051 232.009 45.9747 234.066 41.915H234.23V44.5729C234.23 45.556 234.63 46.448 235.267 47.1034C235.923 47.7405 236.815 48.141 237.798 48.141C239.764 48.141 241.348 46.539 241.348 44.5729V22.5451C241.348 15.154 235.468 10.3297 226.365 10.3297ZM233.993 34.1234C233.993 39.0204 229.806 42.5704 224.272 42.5704C219.975 42.5704 217.19 40.5132 217.19 37.3092C217.19 34.0141 219.848 32.1208 224.927 31.8114L233.993 31.1924V34.1234Z" fill="white"/>
<path d="M265.105 10.439C260.699 10.439 257.277 12.9512 256.094 17.1019H255.966V14.3712C255.966 12.4051 254.364 10.8213 252.416 10.8213C250.45 10.8213 248.848 12.4051 248.848 14.3712V44.4091C248.848 45.4286 249.267 46.3752 249.94 47.0488C250.614 47.7224 251.542 48.1411 252.58 48.1411C254.637 48.1411 256.312 46.4662 256.312 44.4091V25.8766C256.312 20.6154 259.407 17.2111 264.322 17.2111C264.522 17.2111 264.741 17.2111 264.941 17.2293C266.47 17.284 267.708 16.0278 267.708 14.4986V13.0605C267.708 11.6223 266.543 10.439 265.105 10.439Z" fill="white"/>
<path d="M204.72 45.2101C204.72 46.2113 204.21 47.1034 203.445 47.6495C203.445 47.6495 203.427 47.6677 203.409 47.6677C202.936 47.9954 202.371 48.1774 201.752 48.1774C200.096 48.1774 198.767 46.8485 198.767 45.2101C198.767 43.5716 200.096 42.2427 201.752 42.2427C201.88 42.2427 202.026 42.2609 202.153 42.2791C203.609 42.4611 204.72 43.7173 204.72 45.2101Z" fill="white"/>
</svg>
